<?xml version="1.0" encoding="iso-8859-1"?>
<!-- Generator: Adobe Illustrator 19.0.0, SVG Export Plug-In . SVG Version: 6.00 Build 0)  -->
<svg version="1.1" id="Capa_1" xmlns="http://www.w3.org/2000/svg" xmlns:xlink="http://www.w3.org/1999/xlink" x="0px" y="0px"
	 viewBox="0 0 512 512" style="enable-background:new 0 0 512 512;" xml:space="preserve">
<g>
	<g>
		<path d="M437.333,53.333c0-25.067,8.085-35.733,8.085-35.733c2.731-3.136,3.328-7.595,1.6-11.392
			C445.291,2.411,441.493,0,437.333,0h-320C87.936,0,64,23.915,64,53.333c0,29.419,23.936,53.333,53.333,53.333h320
			c4.075,0,7.744-2.411,9.515-6.101c1.792-3.669,1.237-8.128-1.28-11.328C445.483,89.131,437.333,78.464,437.333,53.333z
			 M420.459,85.333H117.333c-17.643,0-32-14.357-32-32c0-17.643,14.357-32,32-32h303.125c-2.453,7.787-4.459,18.325-4.459,32
			C416,67.008,418.005,77.547,420.459,85.333z"/>
	</g>
</g>
<g>
	<g>
		<path d="M416,42.667H117.333c-5.888,0-10.667,4.779-10.667,10.667S111.445,64,117.333,64H416c5.888,0,10.667-4.779,10.667-10.667
			S421.888,42.667,416,42.667z"/>
	</g>
</g>
<g>
	<g>
		<path d="M437.333,85.333c-5.888,0-10.667,4.779-10.667,10.667v394.667H117.333c-17.643,0-32-14.357-32-32V53.333
			c0-5.888-4.779-10.667-10.667-10.667S64,47.445,64,53.333v405.333C64,488.085,87.936,512,117.333,512h320
			c5.888,0,10.667-4.779,10.667-10.667V96C448,90.112,443.221,85.333,437.333,85.333z"/>
	</g>
</g>
<g>
</g>
<g>
</g>
<g>
</g>
<g>
</g>
<g>
</g>
<g>
</g>
<g>
</g>
<g>
</g>
<g>
</g>
<g>
</g>
<g>
</g>
<g>
</g>
<g>
</g>
<g>
</g>
<g>
</g>
</svg>
