<?xml version="1.0" encoding="iso-8859-1"?>
<!-- Generator: Adobe Illustrator 19.0.0, SVG Export Plug-In . SVG Version: 6.00 Build 0)  -->
<svg version="1.1" id="Capa_1" xmlns="http://www.w3.org/2000/svg" xmlns:xlink="http://www.w3.org/1999/xlink" x="0px" y="0px"
	 viewBox="0 0 512 512" style="enable-background:new 0 0 512 512;" xml:space="preserve">
<path style="fill:#8CC63F;" d="M292.542,461.316V118.4c0-7.818-6.488-14.215-14.42-14.215h-42.748c-7.93,0-14.42,6.397-14.42,14.215
	v342.917c0,7.818,6.488,14.215,14.42,14.215h42.749C286.053,475.531,292.542,469.135,292.542,461.316z"/>
<g>
	<path style="fill:#79AA2D;" d="M241.591,461.316V118.4c0-7.818,6.488-14.215,14.42-14.215h-20.636
		c-7.93,0-14.42,6.396-14.42,14.215v342.917c0,7.818,6.489,14.215,14.42,14.215h20.636
		C248.079,475.531,241.591,469.135,241.591,461.316z"/>
	<rect x="220.953" y="187.392" style="fill:#79AA2D;" width="71.584" height="204.932"/>
</g>
<rect x="220.953" y="187.392" style="fill:#709B27;" width="20.636" height="204.932"/>
<path style="fill:#BA7052;" d="M103.288,475.531H20.376c-6.6,0-12.001-5.4-12.001-12.001V116.186c0-6.6,5.4-12.001,12.001-12.001
	h82.912c6.6,0,12.001,5.4,12.001,12.001v347.345C115.289,470.131,109.889,475.531,103.288,475.531z"/>
<path style="fill:#AD644B;" d="M28.377,463.531V116.186c0-6.6,5.4-12.001,12.001-12.001H20.376c-6.6,0-12.001,5.4-12.001,12.001
	v347.345c0,6.6,5.4,12.001,12.001,12.001h20.001C33.777,475.531,28.377,470.131,28.377,463.531z"/>
<path style="fill:#5DA3E2;" d="M207.375,37.852h-78.177c-7.818,0-14.215,6.396-14.215,14.215c0,9.473,0,401.516,0,409.249
	c0,7.818,6.396,14.215,14.215,14.215h78.177c7.818,0,14.215-6.396,14.215-14.215c0-7.811,0-399.848,0-409.249
	C221.589,44.249,215.193,37.852,207.375,37.852z"/>
<g>
	<path style="fill:#4887CC;" d="M134.984,461.316c0-7.732,0-399.776,0-409.249c0-7.818,6.396-14.215,14.215-14.215h-20.001
		c-7.818,0-14.215,6.396-14.215,14.215c0,9.473,0,401.516,0,409.249c0,7.818,6.396,14.215,14.215,14.215h20.001
		C141.381,475.531,134.984,469.135,134.984,461.316z"/>
	<rect x="114.977" y="89.744" style="fill:#4887CC;" width="106.606" height="28.874"/>
</g>
<path style="fill:#2C75B7;" d="M114.983,89.747v28.874h20.001c0-10.642,0-20.354,0-28.874H114.983z"/>
<rect x="114.977" y="118.626" style="fill:#73BBEF;" width="106.606" height="28.874"/>
<path style="fill:#5DA3E2;" d="M114.983,118.622v28.875h20.001c0-10.186,0-19.865,0-28.875H114.983z"/>
<rect x="114.977" y="394.762" style="fill:#73BBEF;" width="106.606" height="28.874"/>
<path style="fill:#5DA3E2;" d="M114.983,394.762v28.874h20.001c0-8.52,0-18.229,0-28.874H114.983z"/>
<rect x="114.977" y="365.881" style="fill:#4887CC;" width="106.606" height="28.874"/>
<path style="fill:#2C75B7;" d="M114.983,365.888v28.874h20.001c0-9.01,0-18.687,0-28.874H114.983z"/>
<rect x="8.379" y="365.893" style="fill:#C97F65;" width="106.916" height="28.874"/>
<rect x="8.378" y="365.893" style="fill:#BA7052;" width="19.999" height="28.874"/>
<rect x="8.379" y="187.392" style="fill:#C97F65;" width="106.916" height="28.874"/>
<rect x="8.378" y="187.392" style="fill:#BA7052;" width="19.999" height="28.874"/>
<path style="fill:#C64757;" d="M384.553,37.852h-78.177c-7.818,0-14.215,6.396-14.215,14.215c0,9.473,0,401.516,0,409.249
	c0,7.818,6.396,14.215,14.215,14.215h78.177c7.818,0,14.215-6.396,14.215-14.215c0-7.811,0-399.848,0-409.249
	C398.768,44.249,392.371,37.852,384.553,37.852z"/>
<g>
	<path style="fill:#B2364B;" d="M312.162,461.316c0-7.732,0-399.776,0-409.249c0-7.818,6.396-14.215,14.215-14.215h-20.001
		c-7.818,0-14.215,6.396-14.215,14.215c0,9.473,0,401.516,0,409.249c0,7.818,6.396,14.215,14.215,14.215h20.001
		C318.559,475.531,312.162,469.135,312.162,461.316z"/>
	<rect x="292.168" y="89.744" style="fill:#B2364B;" width="106.606" height="28.874"/>
</g>
<path style="fill:#A32F48;" d="M292.161,89.747v28.874h20.001c0-10.642,0-20.354,0-28.874H292.161z"/>
<rect x="292.168" y="118.626" style="fill:#D8556B;" width="106.606" height="28.874"/>
<path style="fill:#C64757;" d="M292.161,118.622v28.875h20.001c0-10.186,0-19.865,0-28.875H292.161z"/>
<rect x="292.168" y="394.762" style="fill:#D8556B;" width="106.606" height="28.874"/>
<path style="fill:#C64757;" d="M292.161,394.762v28.874h20.001c0-8.52,0-18.229,0-28.874H292.161z"/>
<rect x="292.168" y="365.881" style="fill:#B2364B;" width="106.606" height="28.874"/>
<path style="fill:#A32F48;" d="M292.161,365.888v28.874h20.001c0-9.01,0-18.687,0-28.874H292.161z"/>
<path style="fill:#FFD261;" d="M490.915,37.852h-78.177c-7.818,0-14.215,6.396-14.215,14.215c0,9.473,0,401.516,0,409.249
	c0,7.818,6.396,14.215,14.215,14.215h78.177c7.818,0,14.215-6.396,14.215-14.215c0-7.811,0-399.848,0-409.249
	C505.13,44.249,498.733,37.852,490.915,37.852z"/>
<g>
	<path style="fill:#F8BF00;" d="M418.524,461.316c0-7.732,0-399.776,0-409.249c0-7.818,6.396-14.215,14.215-14.215h-20.001
		c-7.818,0-14.215,6.396-14.215,14.215c0,9.473,0,401.516,0,409.249c0,7.818,6.396,14.215,14.215,14.215h20.001
		C424.921,475.531,418.524,469.135,418.524,461.316z"/>
	<rect x="398.524" y="89.744" style="fill:#F8BF00;" width="106.606" height="28.874"/>
</g>
<path style="fill:#EFA603;" d="M398.523,89.747v28.874h20.001c0-10.642,0-20.354,0-28.874H398.523z"/>
<rect x="398.524" y="118.626" style="fill:#FCD98B;" width="106.606" height="28.874"/>
<path style="fill:#FFD261;" d="M398.523,118.622v28.875h20.001c0-10.186,0-19.865,0-28.875H398.523z"/>
<rect x="398.524" y="394.762" style="fill:#FCD98B;" width="106.606" height="28.874"/>
<path style="fill:#FFD261;" d="M398.523,394.762v28.874h20.001c0-8.52,0-18.229,0-28.874H398.523z"/>
<rect x="398.524" y="365.881" style="fill:#F8BF00;" width="106.606" height="28.874"/>
<path style="fill:#EFA603;" d="M398.523,365.888v28.874h20.001c0-9.01,0-18.687,0-28.874H398.523z"/>
<path d="M490.285,29.66h-78.177c-5.433,0-10.403,2.01-14.215,5.32c-3.812-3.31-8.783-5.32-14.216-5.32h-78.177
	c-11.974,0-21.715,9.742-21.715,21.715c0,10.84,0,34.817,0,45.685c-2.116-0.69-4.371-1.067-6.714-1.067h-42.143
	c-2.343,0-4.598,0.378-6.714,1.067c0-10.87,0-34.858,0-45.685c0-11.974-9.742-21.715-21.715-21.715h-78.178
	c-11.974,0-21.715,9.742-21.715,21.715c0,16.464,0,27.835,0,45.162c-1.447-0.344-2.949-0.545-4.5-0.545H19.501
	C8.749,95.992,0,104.741,0,115.493v347.345c0,10.753,8.749,19.501,19.501,19.501h82.606c4.852,0,9.286-1.792,12.702-4.735
	c3.712,2.96,8.408,4.735,13.514,4.735h78.178c5.433,0,10.403-2.01,14.215-5.32c3.812,3.31,8.782,5.32,14.215,5.32h42.143
	c5.433,0,10.403-2.01,14.215-5.32c3.812,3.31,8.782,5.32,14.215,5.32h24.209c4.143,0,7.5-3.358,7.5-7.5s-3.357-7.5-7.5-7.5h-24.209
	c-3.702,0-6.714-3.012-6.714-6.714v-30.18h91.607v30.18c0,3.702-3.013,6.714-6.715,6.714h-18.967c-4.143,0-7.5,3.358-7.5,7.5
	s3.357,7.5,7.5,7.5h18.965c5.433,0,10.404-2.01,14.216-5.32c3.812,3.31,8.782,5.32,14.215,5.32h78.177
	c11.974,0,21.715-9.742,21.715-21.715c0-7.056,0-180.051,0-187.123c0-4.142-3.357-7.5-7.5-7.5s-7.5,3.358-7.5,7.5v84.194h-91.606
	v-203.39h91.606v84.194c0,4.142,3.357,7.5,7.5,7.5s7.5-3.358,7.5-7.5c0-5.193,0-181.955,0-187.123
	C512,39.402,502.258,29.66,490.285,29.66z M496.999,415.444h-91.606v-13.873h91.606V415.444z M15.001,223.075h91.607v134.621H15.001
	V223.075z M121.608,96.556h91.607v13.874h-91.607V96.556z M213.214,125.43v13.874h-91.607V125.43H213.214z M213.214,154.305v32.396
	v170.995h-91.607c0-12.72,0-198.708,0-203.391L213.214,154.305L213.214,154.305z M121.61,372.697h91.605v13.874H121.61V372.697z
	 M106.607,208.074H15.003V194.2h91.605V208.074z M15.003,372.697h91.605v13.874H15.003V372.697z M121.608,401.571h91.607v13.873
	h-91.607V401.571z M228.215,194.2h55.57c0,7.917,0,181.958,0,189.932h-55.57C228.215,376.156,228.215,202.113,228.215,194.2z
	 M298.787,96.556h91.607v13.874h-91.607L298.787,96.556L298.787,96.556z M298.787,372.697h91.607v13.874h-91.607L298.787,372.697
	L298.787,372.697z M298.787,357.696c0-6.531,0-188.079,0-203.391h91.607v203.391H298.787z M390.393,139.304h-91.607V125.43h91.607
	L390.393,139.304L390.393,139.304z M405.394,96.556h91.606v13.874h-91.606V96.556z M412.108,44.661h78.177
	c3.702,0,6.714,3.012,6.714,6.714v30.18h-91.606v-30.18C405.394,47.673,408.406,44.661,412.108,44.661z M305.5,44.661h78.177
	c3.702,0,6.715,3.012,6.715,6.714v30.18h-91.607v-30.18C298.787,47.673,301.798,44.661,305.5,44.661z M234.929,110.993h42.143
	c3.702,0,6.714,3.012,6.714,6.714v0.222c0,7.147,0,51.474,0,61.27h-55.57c0-9.832,0-54.043,0-61.27v-0.222
	C228.215,114.005,231.227,110.993,234.929,110.993z M128.322,44.661h78.178c3.702,0,6.714,3.012,6.714,6.714v30.18h-91.607v-30.18
	C121.608,47.673,124.62,44.661,128.322,44.661z M19.501,110.993h82.606c2.439,0,4.5,2.061,4.5,4.5c0,6.926,0,56.583,0,63.706H15.001
	v-63.706C15.001,113.054,17.062,110.993,19.501,110.993z M106.607,462.84c0,2.439-2.061,4.5-4.5,4.5H19.501
	c-2.439,0-4.5-2.061-4.5-4.5v-61.268h91.607c0,5.936,0,52.339,0,59.054V462.84z M206.499,467.34h-78.178
	c-3.702,0-6.714-3.012-6.714-6.714v-30.18h91.607v30.18C213.214,464.328,210.202,467.34,206.499,467.34z M277.072,467.34h-42.143
	c-3.702,0-6.714-3.012-6.714-6.714c0-6.339,0-54.473,0-61.492h55.57c0,7.019,0,55.165,0,61.492
	C283.786,464.328,280.774,467.34,277.072,467.34z M298.787,401.571h91.607v13.873h-91.607L298.787,401.571L298.787,401.571z
	 M490.285,467.34h-78.177c-3.702,0-6.714-3.012-6.714-6.714v-30.18h91.606v30.18C496.999,464.328,493.987,467.34,490.285,467.34z
	 M496.999,386.57h-91.606v-13.874h91.606V386.57z M405.394,139.304V125.43h91.606v13.874H405.394z M255.999,157.859
	c4.143,0,7.5-3.358,7.5-7.5v-11.673c0-4.142-3.357-7.5-7.5-7.5c-4.143,0-7.5,3.358-7.5,7.5v11.673
	C248.499,154.501,251.857,157.859,255.999,157.859z M255.999,419.29c-4.143,0-7.5,3.358-7.5,7.5v11.673c0,4.142,3.357,7.5,7.5,7.5
	s7.5-3.358,7.5-7.5V426.79C263.5,422.648,260.143,419.29,255.999,419.29z M56.792,157.859c4.143,0,7.5-3.358,7.5-7.5v-11.673
	c0-4.142-3.357-7.5-7.5-7.5s-7.5,3.358-7.5,7.5v11.673C49.292,154.501,52.649,157.859,56.792,157.859z M56.792,419.29
	c-4.143,0-7.5,3.358-7.5,7.5v11.673c0,4.142,3.357,7.5,7.5,7.5s7.5-3.358,7.5-7.5V426.79
	C64.293,422.648,60.936,419.29,56.792,419.29z"/>
<g>
</g>
<g>
</g>
<g>
</g>
<g>
</g>
<g>
</g>
<g>
</g>
<g>
</g>
<g>
</g>
<g>
</g>
<g>
</g>
<g>
</g>
<g>
</g>
<g>
</g>
<g>
</g>
<g>
</g>
</svg>
