<?xml version="1.0" encoding="iso-8859-1"?>
<!-- Generator: Adobe Illustrator 19.0.0, SVG Export Plug-In . SVG Version: 6.00 Build 0)  -->
<svg version="1.1" id="Capa_1" xmlns="http://www.w3.org/2000/svg" xmlns:xlink="http://www.w3.org/1999/xlink" x="0px" y="0px"
	 viewBox="0 0 192.701 192.701" style="enable-background:new 0 0 192.701 192.701;" xml:space="preserve">
<g>
	<g id="Double_Chevron_Down" stroke="rgb(89, 89, 89)">
		<path stroke="rgb(89, 89, 89)" fill="rgb(89, 89, 89)" d="M171.955,88.526l-75.61,74.528l-75.61-74.54c-4.74-4.704-12.439-4.704-17.179,0c-4.74,4.704-4.74,12.319,0,17.011
			l84.2,82.997c4.559,4.511,12.608,4.535,17.191,0l84.2-83.009c4.74-4.692,4.74-12.319,0-17.011
			C184.394,83.823,176.695,83.823,171.955,88.526z"/>
		<path stroke="rgb(89, 89, 89)" fill="rgb(89, 89, 89)" d="M87.755,104.322c4.559,4.511,12.608,4.535,17.191,0l84.2-82.997c4.74-4.704,4.74-12.319,0-17.011
			c-4.74-4.704-12.439-4.704-17.179,0L96.345,78.842L20.734,4.314c-4.74-4.704-12.439-4.704-17.179,0
			c-4.74,4.704-4.74,12.319,0,17.011L87.755,104.322z"/>
	</g>
	<g>
	</g>
	<g>
	</g>
	<g>
	</g>
	<g>
	</g>
	<g>
	</g>
	<g>
	</g>
</g>
<g>
</g>
<g>
</g>
<g>
</g>
<g>
</g>
<g>
</g>
<g>
</g>
<g>
</g>
<g>
</g>
<g>
</g>
<g>
</g>
<g>
</g>
<g>
</g>
<g>
</g>
<g>
</g>
<g>
</g>
</svg>
