<?xml version="1.0" encoding="iso-8859-1"?>
<!-- Generator: Adobe Illustrator 19.0.0, SVG Export Plug-In . SVG Version: 6.00 Build 0)  -->
<svg version="1.1" id="Capa_1" xmlns="http://www.w3.org/2000/svg" xmlns:xlink="http://www.w3.org/1999/xlink" x="0px" y="0px"
	 viewBox="0 0 512.003 512.003" style="enable-background:new 0 0 512.003 512.003;" xml:space="preserve">
<g>
	<g>
		<path fill="#FFFFFF" d="M213.767,212.502h-19.365c-5.523,0-10,4.478-10,10c0,5.522,4.477,10,10,10h19.365c5.522,0,10-4.478,10-10
			C223.767,216.98,219.29,212.502,213.767,212.502z"/>
	</g>
</g>
<g>
	<g>
		<path fill="#FFFFFF" d="M123.187,212.502h-19.365c-5.523,0-10,4.478-10,10c0,5.522,4.477,10,10,10h19.365c5.523,0,10-4.478,10-10
			C133.187,216.98,128.71,212.502,123.187,212.502z"/>
	</g>
</g>
<g>
	<g>
		<path fill="#FFFFFF" d="M180.467,264.026c-3.905-3.907-10.236-3.909-14.142-0.006c-4.153,4.148-10.909,4.148-15.062,0
			c-3.906-3.904-10.238-3.9-14.142,0.006c-3.904,3.908-3.901,10.24,0.006,14.143c5.974,5.969,13.821,8.953,21.667,8.953
			c7.847,0,15.693-2.984,21.667-8.953C184.368,274.265,184.369,267.933,180.467,264.026z"/>
	</g>
</g>
<g>
	<g>
		<path fill="#FFFFFF" d="M434.451,500.051c-0.13-0.64-0.32-1.27-0.57-1.88c-0.25-0.601-0.56-1.18-0.92-1.72c-0.359-0.551-0.779-1.061-1.239-1.521
			c-0.46-0.46-0.971-0.88-1.521-1.24c-0.54-0.359-1.12-0.67-1.729-0.92c-0.6-0.25-1.23-0.45-1.87-0.58c-1.29-0.25-2.62-0.25-3.91,0
			c-0.641,0.13-1.27,0.33-1.87,0.58c-0.6,0.25-1.18,0.561-1.72,0.92c-0.55,0.36-1.06,0.78-1.52,1.24
			c-0.46,0.46-0.88,0.97-1.25,1.521c-0.359,0.54-0.67,1.119-0.92,1.72c-0.25,0.61-0.439,1.24-0.57,1.88
			c-0.13,0.64-0.19,1.3-0.19,1.95c0,0.649,0.06,1.309,0.19,1.95c0.131,0.64,0.32,1.269,0.57,1.869c0.25,0.61,0.561,1.19,0.92,1.73
			c0.37,0.55,0.79,1.06,1.25,1.52c0.46,0.461,0.969,0.881,1.52,1.24c0.54,0.36,1.12,0.67,1.72,0.92c0.6,0.25,1.229,0.45,1.87,0.57
			c0.65,0.13,1.31,0.2,1.96,0.2c0.649,0,1.309-0.07,1.95-0.2c0.64-0.12,1.269-0.32,1.87-0.57c0.609-0.25,1.189-0.56,1.729-0.92
			c0.55-0.359,1.061-0.779,1.521-1.24c0.46-0.46,0.88-0.97,1.239-1.52c0.36-0.54,0.67-1.12,0.92-1.73
			c0.25-0.599,0.44-1.229,0.57-1.869s0.2-1.301,0.2-1.95C434.651,501.351,434.581,500.691,434.451,500.051z"/>
	</g>
</g>
<g>
	<g>
		<path fill="#FFFFFF" d="M475.79,243.569c-1.126-3.465-4.047-6.044-7.625-6.73l-23.303-4.476l-11.457-20.778c-1.759-3.191-5.113-5.172-8.757-5.172
			s-6.998,1.981-8.757,5.172l-11.457,20.778l-23.303,4.476c-3.577,0.687-6.498,3.266-7.624,6.73
			c-1.126,3.465-0.278,7.268,2.213,9.926l16.221,17.317l-2.944,23.545c-0.452,3.615,1.098,7.191,4.045,9.331
			c2.947,2.142,6.826,2.51,10.125,0.964l11.481-5.385v169.021c0,5.522,4.478,10,10,10c5.523,0,10-4.478,10-10V299.266l11.483,5.386
			c1.352,0.634,2.802,0.946,4.245,0.946c2.076,0,4.14-0.647,5.879-1.91c2.947-2.141,4.497-5.716,4.045-9.331l-2.944-23.545
			l16.221-17.317C476.069,250.837,476.915,247.034,475.79,243.569z M439.553,260.564c-2.032,2.168-2.993,5.128-2.625,8.077
			l1.276,10.203l-9.31-4.367c-1.345-0.631-2.795-0.946-4.246-0.946c-1.45,0-2.901,0.315-4.247,0.946l-9.309,4.366l1.276-10.202
			c0.368-2.949-0.593-5.909-2.625-8.077l-7.029-7.505l10.098-1.939c2.919-0.561,5.436-2.39,6.871-4.992l4.965-9.004l4.965,9.004
			c1.435,2.603,3.952,4.432,6.871,4.992l10.099,1.939L439.553,260.564z"/>
	</g>
</g>
<g>
	<g>
		<path fill="#FFFFFF" d="M424.649,168.673c-5.522,0-10,4.478-10,10v12c0,5.522,4.478,10,10,10c5.522,0,10-4.478,10-10v-12
			C434.649,173.151,430.172,168.673,424.649,168.673z"/>
	</g>
</g>
<g>
	<g>
		<path fill="#FFFFFF" d="M393.262,206.488l-6.126-6.127c-3.904-3.905-10.237-3.905-14.142-0.001c-3.905,3.905-3.906,10.237-0.001,14.142
			l6.126,6.127c1.952,1.953,4.511,2.93,7.071,2.93c2.558,0,5.118-0.977,7.071-2.929
			C397.165,216.725,397.166,210.393,393.262,206.488z"/>
	</g>
</g>
<g>
	<g>
		<path fill="#FFFFFF" d="M476.306,200.36c-3.905-3.906-10.238-3.905-14.142,0.001l-6.126,6.127c-3.905,3.906-3.904,10.238,0.001,14.142
			c1.952,1.953,4.51,2.929,7.07,2.929c2.559,0,5.119-0.977,7.072-2.93l6.126-6.127C480.212,210.596,480.21,204.264,476.306,200.36z"
			/>
	</g>
</g>
<g>
	<g>
		<path fill="#FFFFFF" d="M501.982,246.006h-12c-5.522,0-10,4.478-10,10c0,5.522,4.478,10,10,10h12c5.522,0,10-4.478,10-10
			C511.982,250.483,507.504,246.006,501.982,246.006z"/>
	</g>
</g>
<g>
	<g>
		<path fill="#FFFFFF" d="M359.316,246.006h-12c-5.522,0-10,4.478-10,10c0,5.522,4.478,10,10,10h12c5.522,0,10-4.478,10-10
			C369.316,250.483,364.839,246.006,359.316,246.006z"/>
	</g>
</g>
<g>
	<g>
		<path fill="#FFFFFF" d="M258.048,342.157h-58.724l-2.395-18.615c0.35-0.14,0.698-0.283,1.046-0.427c8.592,5.106,18.325,7.78,28.478,7.78
			c30.839,0,55.928-25.09,55.928-55.929c0-6.173-1.026-12.298-3.004-18.099c16.349-11.111,27.109-29.859,27.109-51.073
			c0-12.736-3.984-25.122-11.193-35.424c25.652-17.245,22.972-35.357,21.234-41.167c-0.032-0.105-0.065-0.211-0.101-0.314
			c-6.415-19.128-36.202-28.418-102.352-31.708L167.715,5.488C166.014,2.122,162.563,0,158.791,0c-3.772,0-7.223,2.122-8.924,5.488
			L103.511,97.18C37.36,100.469,7.574,109.759,1.161,128.89c-0.035,0.103-0.067,0.205-0.098,0.309
			c-1.741,5.812-4.428,23.926,21.23,41.173c-7.209,10.302-11.192,22.687-11.192,35.423c0,21.347,10.896,40.197,27.417,51.281
			c-1.932,5.739-2.934,11.793-2.934,17.891c0,30.839,25.089,55.929,55.928,55.929c10.085,0,19.764-2.642,28.319-7.687
			c0.275,0.113,0.55,0.225,0.826,0.336l-2.394,18.614H59.538c-32.289,0-58.559,26.27-58.559,58.56v101.22
			c0,0.01,0,0.021,0.001,0.032c0,0.01-0.001,0.021-0.001,0.032c0,5.522,4.477,10,10,10h295.628c0.086,0,0.172-0.001,0.258-0.003
			c5.403-0.137,9.742-4.561,9.742-9.997V400.717C316.608,368.427,290.337,342.157,258.048,342.157z M226.454,310.895
			c-2.341,0-4.647-0.221-6.897-0.656c13.106-10.718,22.923-25.297,28.87-42.843c4.348-0.255,8.577-0.962,12.64-2.075
			c0.868,3.126,1.315,6.374,1.315,9.645C262.382,294.778,246.265,310.895,226.454,310.895z M253.433,246.599
			c1.063-6.992,1.608-14.318,1.608-21.938V188.56c7.861-2.559,15.389-5.429,22.482-8.592c5.754,7.311,8.964,16.427,8.964,25.825
			C286.486,225.826,272.292,242.604,253.433,246.599z M118.665,111.533c0.047-0.09,0.093-0.181,0.138-0.272l39.989-79.098
			l39.987,79.089c0.048,0.098,0.097,0.195,0.148,0.292l15.434,30.526c-18.238,3.097-36.886,4.583-55.611,4.532
			c-18.662,0.112-37.287-1.436-55.523-4.532L118.665,111.533z M20.171,135.124c0.438-1.045,3.623-6.442,23.679-11.069
			c12.25-2.826,28.454-4.886,49.231-6.246l-13.69,27.079c-1.4,2.77-1.435,6.031-0.095,8.83c1.34,2.799,3.904,4.817,6.939,5.463
			c23.685,5.038,48.099,7.485,72.514,7.422c0.534,0.002,1.066,0.004,1.6,0.004c23.955,0,47.835-2.497,71.003-7.426
			c3.036-0.645,5.599-2.664,6.939-5.463c1.34-2.799,1.305-6.062-0.095-8.83l-13.691-27.079c20.777,1.36,36.982,3.419,49.232,6.246
			c19.838,4.576,23.15,9.756,23.68,11.059c1.04,4.092-2.437,13.73-21.886,23.671c-0.138,0.066-0.275,0.136-0.411,0.209
			c-1.325,0.67-2.722,1.341-4.196,2.011c-8.64,3.948-18.023,7.421-27.929,10.376c-0.533,0.111-1.05,0.264-1.548,0.456
			c-25.048,7.294-53.328,11.291-81.326,11.291c-0.456,0-0.917-0.001-1.373-0.003c-28.352,0.136-57.15-3.875-82.624-11.295
			c-0.486-0.186-0.991-0.336-1.511-0.445c-9.918-2.957-19.316-6.434-27.967-10.386c-1.444-0.657-2.815-1.315-4.116-1.971
			c-0.173-0.094-0.348-0.183-0.524-0.267C22.611,148.835,19.135,139.215,20.171,135.124z M31.101,205.794
			c-0.001-9.398,3.21-18.514,8.963-25.825c7.094,3.161,14.622,6.031,22.483,8.588v36.104c0,7.62,0.545,14.946,1.608,21.938
			C45.296,242.604,31.101,225.825,31.101,205.794z M91.512,310.895c-19.811,0-35.928-16.117-35.928-35.929
			c0-3.237,0.438-6.453,1.288-9.549c3.955,1.058,8.065,1.732,12.288,1.98c5.958,17.577,15.799,32.176,28.94,42.9
			C95.949,310.693,93.747,310.895,91.512,310.895z M82.548,224.66v-30.44c24.164,5.888,50.401,9.017,76.201,8.903
			c0.484,0.002,0.966,0.003,1.45,0.003c25.4,0,51.129-3.123,74.842-8.902v30.436c0,37.461-14.59,65.219-40.483,78.054
			c-0.047,0.023-0.094,0.046-0.141,0.07c-3.552,1.75-7.316,3.222-11.283,4.398c-4.704,1.395-7.701,5.996-7.075,10.863l4.552,35.387
			c0.642,4.988,4.889,8.724,9.919,8.724h3.178c-6.111,6.508-12.808,12.722-19.094,17.217c-0.489,0.284-0.945,0.604-1.368,0.955
			c-5.397,3.676-10.431,5.979-14.451,5.979c-4.045,0-9.129-2.348-14.582-6.084c-0.181-0.145-0.368-0.285-0.561-0.42
			c-7.04-4.891-13.98-11.548-19.678-17.647h3.086v0.001c5.03,0,9.276-3.735,9.919-8.725l4.552-35.386
			c0.626-4.866-2.371-9.468-7.075-10.862c-3.851-1.142-7.511-2.562-10.971-4.245c-0.101-0.052-0.202-0.102-0.304-0.15
			C97.194,289.986,82.548,262.193,82.548,224.66z M20.98,400.717c0-21.262,17.297-38.56,38.559-38.56h38.005
			c3.677,4.603,10.276,12.47,18.27,20.257c3.238,3.159,6.382,5.998,9.44,8.522c-13.248,25.207-30.321,48.487-48.618,66.183
			c-18.656,18.043-37.688,29.417-55.656,33.365V400.717z M65.462,492.001c8.444-5.682,16.836-12.533,25.079-20.505
			c19.346-18.71,37.373-43.087,51.463-69.455c5.931,2.855,11.508,4.267,16.79,4.267c5.282,0,10.859-1.411,16.791-4.267
			c14.089,26.368,32.117,50.745,51.463,69.455c8.243,7.972,16.635,14.823,25.079,20.505H65.462z M296.608,490.485
			c-17.968-3.948-37-15.322-55.656-33.365c-18.298-17.697-35.37-40.975-48.617-66.183c3.401-2.81,6.911-6.009,10.537-9.603
			c7.489-7.423,13.661-14.789,17.169-19.177h38.008c21.262,0,38.559,17.298,38.559,38.56V490.485z"/>
	</g>
</g>
<g>
</g>
<g>
</g>
<g>
</g>
<g>
</g>
<g>
</g>
<g>
</g>
<g>
</g>
<g>
</g>
<g>
</g>
<g>
</g>
<g>
</g>
<g>
</g>
<g>
</g>
<g>
</g>
<g>
</g>
</svg>
