<?xml version="1.0" encoding="utf-8"?><svg version="1.1" id="Layer_1" xmlns="http://www.w3.org/2000/svg" xmlns:xlink="http://www.w3.org/1999/xlink" x="0px" y="0px" viewBox="0 0 122.88 122.881" enable-background="new 0 0 122.88 122.881" xml:space="preserve"><g><path fill-rule="evenodd" clip-rule="evenodd" fill="#E7E3C7" d="M16.379,0h90.122c9.009,0,16.379,7.371,16.379,16.379v90.122 c0,9.009-7.37,16.38-16.379,16.38H16.379C7.371,122.881,0,115.51,0,106.501V16.379C0,7.371,7.371,0,16.379,0L16.379,0z"/><path fill="#6C3D0D" d="M61.661,25.795c-6.29,0-11.108,2.514-14.427,6.549c-3.796,4.615-5.716,11.237-5.716,18.447 c0,7.221,1.859,13.573,5.42,17.972c3.203,3.956,7.851,6.349,13.824,6.349c6.332,0,11.27-2.457,14.685-6.444 c3.811-4.448,5.803-10.819,5.803-17.876c0-0.064,0.003-0.129,0.009-0.192l0.001-0.093h-0.009c0-6.404-1.729-12.644-5.091-17.262 c-3.248-4.462-8.061-7.411-14.34-7.456l-0.159-0.001V25.795L61.661,25.795z M81.355,71.712c-1.327,1.746-2.896,3.279-4.634,4.585 c-4.561,3.427-10.285,5.278-15.833,5.278c-8.188,0-14.444-3.276-18.772-8.521c-4.7-5.695-7.043-13.695-7.043-22.263 c0-8.867,2.463-16.973,7.262-22.739c4.495-5.401,10.972-8.729,19.326-8.729c5.821,0,11.037,1.996,15.135,5.294 c1.736,1.398,3.27,3.029,4.56,4.841v-8.275h6.451v58.564c0,8.561-2.335,14.968-6.635,19.326 c-4.499,4.563-11.032,6.776-19.187,6.776c-6.623,0-12.788-1.722-17.215-5.58c-3.928-3.422-6.427-8.451-6.597-15.348v-0.039h6.451 l-0.001,0.073c0.215,4.853,1.93,8.297,4.589,10.573c3.133,2.682,7.661,3.851,12.664,3.851c6.41,0,11.369-1.577,14.631-4.854 c3.163-3.178,4.849-8.063,4.849-14.778V71.712L81.355,71.712z"/></g></svg>