<svg id="Capa_1" enable-background="new 0 0 513.201 513.201" height="512" viewBox="0 0 513.201 513.201" width="512" xmlns="http://www.w3.org/2000/svg"><g><g><path d="m385.608.426c-.07 0-.14 0-.21 0-27.324 0-53.666 9.965-74.193 28.072-3.106 2.74-3.403 7.479-.663 10.586 2.738 3.107 7.479 3.404 10.585.663 17.786-15.688 40.603-24.321 64.271-24.321h.183c53.531.101 97.083 43.736 97.083 97.27 0 53.635-43.635 97.27-97.297 97.27-.001 0-.002 0-.003 0-4.557 0-8.66 2.551-10.71 6.657-6.631 13.282-23.483 20.404-37.267 24.12 6.055-10.274 8.622-22.132 9.684-29.307.742-5.018-1.781-9.951-6.277-12.275-32.487-16.794-52.669-49.925-52.67-86.464 0-17.001 4.471-33.742 12.93-48.415 2.068-3.588.836-8.174-2.752-10.243-3.591-2.068-8.175-.838-10.244 2.752-9.77 16.947-14.934 36.279-14.934 55.906.001 41.405 22.454 79.018 58.753 98.714-1.146 6.408-4.377 20.022-12.026 27.876-3.358 3.448-4.087 8.624-1.813 12.877 1.955 3.657 5.702 5.851 9.723 5.851.672 0 1.352-.062 2.032-.188 35.712-6.622 50.944-21.201 57.423-32.877 61.069-.976 110.448-50.958 110.448-112.255 0-61.789-50.268-112.153-112.056-112.269z"/><path d="m339.775 77.11c-4.143 0-7.5 3.358-7.5 7.5v64.778c0 4.142 3.357 7.5 7.5 7.5s7.5-3.358 7.5-7.5v-26h29.827v26c0 4.142 3.357 7.5 7.5 7.5s7.5-3.358 7.5-7.5v-64.778c0-4.142-3.357-7.5-7.5-7.5s-7.5 3.358-7.5 7.5v23.778h-29.827v-23.778c0-4.142-3.357-7.5-7.5-7.5z"/><circle cx="422.406" cy="84.611" r="8.607"/><path d="m422.406 100.712c-4.143 0-7.5 3.358-7.5 7.5v41.177c0 4.142 3.357 7.5 7.5 7.5s7.5-3.358 7.5-7.5v-41.177c0-4.142-3.357-7.5-7.5-7.5z"/><path d="m258.289 196.479h-4.609v-21.141c0-23.001-8.376-45.596-23.585-63.623-8.599-10.193-19.232-18.746-31.141-25.244 2.441-7.7 2.493-16.055 2.016-22.106 0 0 0 0 0-.001-.448-5.684-4-10.479-8.885-12.784 1.276-7.753.825-15.778-1.648-23.325-5.624-17.164-21.506-28.255-40.459-28.255-18.927 0-34.79 11.092-40.415 28.258-2.473 7.548-2.937 15.576-1.662 23.33-4.878 2.307-8.423 7.099-8.87 12.777-.477 6.048-.426 14.4 2.013 22.099-11.909 6.499-22.539 15.059-31.139 25.252-15.209 18.028-23.585 40.623-23.585 63.622v21.141h-4.607c-14.433 0-26.175 11.742-26.175 26.175s11.742 26.175 26.175 26.175h5.157c4.384 42.572 34.635 77.583 74.725 89.02v7.261c-23.37 4.957-44.761 17.326-60.771 35.627-2.728 3.118-2.411 7.856.706 10.583 3.118 2.729 7.856 2.412 10.583-.706 13.147-15.028 30.484-25.443 49.498-30.136.337 15.373 12.938 27.777 28.39 27.777 15.459 0 28.064-12.416 28.39-27.798 42.044 10.372 73.316 48.401 73.316 93.601v44.142h-33.393v-45.263c0-4.142-3.357-7.5-7.5-7.5s-7.5 3.358-7.5 7.5v45.263h-106.628v-45.263c0-4.142-3.357-7.5-7.5-7.5s-7.5 3.358-7.5 7.5v45.263h-33.393v-44.142c0-12.853 2.486-25.332 7.391-37.089 1.595-3.823-.212-8.215-4.034-9.809-3.823-1.595-8.215.211-9.81 4.035-5.671 13.597-8.547 28.018-8.547 42.863v51.642c0 4.142 3.357 7.5 7.5 7.5h218.413c4.143 0 7.5-3.358 7.5-7.5v-51.642c0-53.507-37.923-98.314-88.301-108.98v-7.229c40.09-11.437 70.341-46.449 74.725-89.021h5.159c14.433 0 26.175-11.742 26.175-26.175 0-14.431-11.742-26.174-26.175-26.174zm-211.97 37.351h-4.607c-6.162 0-11.175-5.013-11.175-11.175s5.013-11.175 11.175-11.175h4.607zm77.497-200.902c4.331-13.218 16.355-17.928 26.162-17.928 9.379 0 21.869 4.695 26.206 17.927 1.8 5.492 2.022 11.444.922 17.18h-54.21c-1.102-5.736-.879-11.688.92-17.179zm-9.833 32.615c.02-.248.204-.436.43-.436h71.175c.225 0 .409.187.43.435.595 7.57-.197 14.216-2.231 18.713-.084.188-.25.309-.422.309h-66.729c-.172 0-.338-.121-.422-.308-2.034-4.5-2.826-11.145-2.231-18.713zm49.422 294.308c0 7.392-6.014 13.405-13.405 13.405-7.393 0-13.406-6.014-13.406-13.405v-18.91c4.39.569 8.864.87 13.406.87s9.015-.301 13.405-.87zm75.275-121.721c0 48.898-39.781 88.68-88.68 88.68-48.847 0-88.595-39.698-88.679-88.526v-28.1c40.771-5.71 63.545-29.774 87.569-55.188.369-.39.739-.781 1.109-1.172.37.392.739.782 1.108 1.172 24.025 25.415 46.799 49.479 87.571 55.189v27.945zm0-43.102c-34.321-5.538-54.065-26.422-76.671-50.336-1.509-1.596-3.027-3.202-4.562-4.816-1.93-2.03-4.645-3.194-7.447-3.194-2.804 0-5.519 1.164-7.448 3.194-1.534 1.613-3.053 3.22-4.562 4.815-22.605 23.914-42.35 44.798-76.671 50.336v-19.689c0-19.464 7.12-38.624 20.05-53.95 7.986-9.466 18.026-17.297 29.305-23.043 1.859.784 3.877 1.218 5.962 1.218h66.729c2.092 0 4.117-.437 5.981-1.226 11.272 5.747 21.302 13.588 29.285 23.051 12.93 15.325 20.05 34.484 20.05 53.95v19.69zm19.609 38.802h-4.609v-22.35h4.609c6.162 0 11.175 5.013 11.175 11.175 0 6.161-5.013 11.175-11.175 11.175z"/><path d="m115.688 214.048c-4.143 0-7.5 3.358-7.5 7.5v15.031c0 4.142 3.357 7.5 7.5 7.5s7.5-3.358 7.5-7.5v-15.031c0-4.142-3.358-7.5-7.5-7.5z"/><path d="m184.313 244.079c4.143 0 7.5-3.358 7.5-7.5v-15.031c0-4.142-3.357-7.5-7.5-7.5s-7.5 3.358-7.5 7.5v15.031c0 4.142 3.358 7.5 7.5 7.5z"/><path d="m150.296 278.662c-4.796 0-9.354-2.08-12.505-5.705-2.718-3.127-7.454-3.459-10.581-.742-3.126 2.717-3.458 7.454-.741 10.581 6.001 6.906 14.686 10.866 23.827 10.866 8.704 0 17.106-3.648 23.053-10.008 2.829-3.026 2.669-7.772-.356-10.601-3.026-2.83-7.772-2.669-10.601.356-3.166 3.388-7.462 5.253-12.096 5.253z"/></g></g></svg>