<svg height="512pt" viewBox="0 0 512.00146 512" width="512pt" xmlns="http://www.w3.org/2000/svg"><path d="m206.714844 352.039062c-15.34375 0-27.828125 12.480469-27.828125 27.824219s12.484375 27.824219 27.828125 27.824219h99.167968c15.34375 0 27.824219-12.480469 27.824219-27.824219s-12.480469-27.824219-27.824219-27.824219h-21.757812v-126.492187c0-15.34375-12.484375-27.828125-27.828125-27.828125h-49.582031c-15.34375 0-27.828125 12.484375-27.828125 27.828125 0 15.339844 12.484375 27.824219 27.828125 27.824219h21.757812v98.667968zm29.269531-113.6875h-29.269531c-7.0625 0-12.808594-5.746093-12.808594-12.804687 0-7.0625 5.746094-12.808594 12.808594-12.808594h49.585937c7.058594 0 12.804688 5.746094 12.804688 12.808594v134c0 4.148437 3.363281 7.511719 7.511719 7.511719h29.265624c7.0625 0 12.808594 5.742187 12.808594 12.804687s-5.746094 12.808594-12.808594 12.808594h-99.167968c-7.0625 0-12.808594-5.746094-12.808594-12.808594s5.746094-12.804687 12.808594-12.804687h29.269531c4.148437 0 7.507813-3.363282 7.507813-7.511719v-113.683594c0-4.148437-3.363282-7.511719-7.507813-7.511719zm0 0"/><path d="m215.03125 144.980469c0 22.757812 18.511719 41.269531 41.265625 41.269531 22.757813 0 41.269531-18.511719 41.269531-41.269531 0-22.753907-18.511718-41.265625-41.269531-41.265625-22.753906 0-41.265625 18.511718-41.265625 41.265625zm41.265625-26.246094c14.472656 0 26.25 11.773437 26.25 26.246094 0 14.472656-11.777344 26.25-26.25 26.25s-26.246094-11.777344-26.246094-26.25c0-14.472657 11.773438-26.246094 26.246094-26.246094zm0 0"/><path d="m273.300781 15.003906c120.375 8.375 215.332031 103.511719 223.699219 223.699219.273438 3.957031 3.570312 6.984375 7.480469 6.984375.175781 0 .355469-.003906.53125-.015625 4.136719-.289063 7.257812-3.878906 6.96875-8.015625-8.898438-127.855469-109.988281-228.753906-237.640625-237.6367188-4.132813-.2890622-7.722656 2.8320308-8.011719 6.9687498s2.832031 7.726563 6.972656 8.015625zm0 0"/><path d="m37.652344 397.664062-27.398438 89.542969c-2.730468 8.910157 5.625 17.269531 14.535156 14.542969l89.546876-27.402344c3.21875-.984375 6.753906-.53125 9.710937 1.238282 39.773437 23.851562 85.933594 36.417968 132.523437 36.414062 135.417969-.007812 246.089844-104.21875 255.414063-238.253906.285156-4.136719-2.835937-7.722656-6.972656-8.011719-4.140625-.289063-7.722657 2.835937-8.011719 6.972656-12.457031 179.082031-209.851562 283.171875-365.230469 190-6.597656-3.957031-14.554687-4.945312-21.828125-2.722656l-83.46875 25.542969 25.542969-83.464844c2.226563-7.277344 1.234375-15.230469-2.722656-21.828125-93.089844-155.253906 10.734375-352.761719 190.003906-365.234375 4.136719-.285156 7.257813-3.875 6.96875-8.011719-.285156-4.136719-3.886719-7.25-8.011719-6.9687498-123.441406 8.5859378-222.414062 103.2070308-236.5625 225.9101568-6.492187 56.3125 5.839844 113.855468 34.722656 162.027343 1.773438 2.953125 2.222657 6.492188 1.238282 9.707031zm0 0"/></svg>