<svg id="Layer_1" enable-background="new 0 0 512 512" height="512" viewBox="0 0 512 512" width="512" xmlns="http://www.w3.org/2000/svg"><g><g><path d="m325.5 432.468h-141.487v-122.5c0-4.143-3.358-7.5-7.5-7.5h-144c-4.142 0-7.5 3.357-7.5 7.5v122.5h-11.513c-7.444 0-13.5 6.056-13.5 13.5v22c0 7.444 6.056 13.5 13.5 13.5h34.115c9.931-.344 9.923-14.66 0-15h-32.615v-19h309v19h-241.308c-9.931.344-9.923 14.66 0 15h242.808c7.444 0 13.5-6.056 13.5-13.5v-22c0-7.444-6.056-13.5-13.5-13.5zm-285.487-88h21v27h-21zm36 0h21v27h-21zm36 0h21v27h-21zm36 0h21v27h-21zm21-15h-21v-12h21zm-36 0h-21v-12h21zm-36 0h-21v-12h21zm-36-12v12h-21v-12zm-21 69h21v46h-21zm36 0h21v46h-21zm36 0h21v46h-21zm36 46v-46h21v46z"/><path d="m498.5 216.468h-35.957l7.163-6.256c0-.001 0-.001 0-.001 4.775-4.171 5.267-11.449 1.096-16.226l-37.491-42.93c-.001-.001-.002-.002-.003-.003l-12.65-14.485-30.105-34.473c-2.021-2.313-4.821-3.702-7.886-3.909-3.062-.203-6.026.79-8.341 2.812l-10.025 8.755v-15.784c0-4.143-3.358-7.5-7.5-7.5h-108c-4.142 0-7.5 3.357-7.5 7.5v122.5h-54.801c-7.444 0-13.5 6.056-13.5 13.5v22c0 7.444 6.056 13.5 13.5 13.5h246.039c9.931-.344 9.923-14.66 0-15h-244.539v-19h309v19h-28.154c-9.931.344-9.923 14.66 0 15h29.654c7.444 0 13.5-6.056 13.5-13.5v-22c0-7.444-6.056-13.5-13.5-13.5zm-242.198-88h21v27h-21zm36 0h21v27h-21zm36 0h21v27h-21zm36 21.1 58.425 66.9h-58.425zm41.38-7.346 11.395 13.048-15.817 13.814-17.76-20.337 15.817-13.813zm35.703 72.808-30.258-34.647 15.817-13.814 30.258 34.648zm-59.827-100.433 7.894 9.039-15.818 13.813-7.893-9.039zm-32.256-1.129h-21v-12h21zm-36 0h-21v-12h21zm-36-12v12h-21v-12zm-21 69h21v46h-21zm36 0h21v46h-21zm36 46v-46h21v46z"/><path d="m36.875 115.569c1.686 1.652 2.454 4.035 2.055 6.375l-2.998 17.57c-1.435 8.409 1.957 16.735 8.852 21.729 3.861 2.796 8.371 4.216 12.912 4.216 3.518-.001 7.054-.853 10.318-2.578l15.697-8.296c2.061-1.088 4.52-1.088 6.579 0l15.697 8.296c7.477 3.952 16.378 3.324 23.23-1.638 6.895-4.993 10.287-13.319 8.852-21.729l-2.998-17.571c-.399-2.339.369-4.722 2.055-6.374l12.699-12.444c13.077-12.567 5.726-35.353-12.257-37.814l-17.548-2.563c-2.31-.338-4.309-1.801-5.346-3.914l-7.848-15.986c-7.875-16.422-31.78-16.417-39.65 0l-1.713 3.49c-1.825 3.718-.291 8.212 3.427 10.037 3.719 1.827 8.213.291 10.038-3.428l1.713-3.49c2.396-5.275 10.326-5.274 12.721 0l7.848 15.986c3.216 6.553 9.437 11.094 16.642 12.146l17.549 2.563c2.725.398 4.866 2.214 5.728 4.856.872 2.676.198 5.443-1.802 7.403l-12.699 12.444c-5.197 5.094-7.568 12.425-6.342 19.61l2.998 17.571c.474 2.776-.597 5.415-2.863 7.057-1.067.773-3.929 2.371-7.423.524l-15.697-8.296c-6.448-3.408-14.148-3.408-20.597 0l-15.697 8.296c-3.495 1.847-6.355.248-7.423-.524-2.267-1.642-3.337-4.28-2.863-7.057l2.998-17.571c1.226-7.186-1.145-14.517-6.342-19.61l-12.702-12.443c-2-1.96-2.674-4.728-1.802-7.403.862-2.643 3.003-4.458 5.728-4.856l9.593-1.401c9.779-1.778 7.698-15.936-2.168-14.842l-9.593 1.401c-17.99 2.463-25.33 25.253-12.257 37.814z"/></g></g></svg>