<?xml version="1.0" encoding="iso-8859-1"?>
<!-- Generator: Adobe Illustrator 19.0.0, SVG Export Plug-In . SVG Version: 6.00 Build 0)  -->
<svg version="1.1" id="Capa_1" xmlns="http://www.w3.org/2000/svg" xmlns:xlink="http://www.w3.org/1999/xlink" x="0px" y="0px"
	 viewBox="0 0 512 512" style="enable-background:new 0 0 512 512;" xml:space="preserve">
<g>
	<g>
		<path d="M292.084,0.737c-4.2,0-7.604,3.405-7.604,7.604v20.15c0,4.199,3.404,7.604,7.604,7.604s7.604-3.405,7.604-7.604V8.341
			C299.688,4.142,296.285,0.737,292.084,0.737z"/>
	</g>
</g>
<g>
	<g>
		<path d="M292.084,54.988c-4.2,0-7.604,3.405-7.604,7.604v20.149c0,4.199,3.404,7.604,7.604,7.604s7.604-3.405,7.604-7.604V62.592
			C299.688,58.392,296.285,54.988,292.084,54.988z"/>
	</g>
</g>
<g>
	<g>
		<path d="M329.284,37.938h-20.15c-4.2,0-7.604,3.405-7.604,7.604s3.405,7.604,7.604,7.604h20.15c4.2,0,7.604-3.405,7.604-7.604
			S333.484,37.938,329.284,37.938z"/>
	</g>
</g>
<g>
	<g>
		<path d="M275.033,37.938h-20.149c-4.2,0-7.604,3.405-7.604,7.604s3.405,7.604,7.604,7.604h20.15c4.2,0,7.604-3.405,7.604-7.604
			S279.234,37.938,275.033,37.938z"/>
	</g>
</g>
<g>
	<g>
		<path d="M56.268,496.055H30.011c-8.163,0-14.803-6.64-14.803-14.802V198.679c0-4.199-3.404-7.604-7.604-7.604S0,194.48,0,198.679
			v282.573c0,16.548,13.462,30.01,30.011,30.01h26.257c4.2,0,7.604-3.405,7.604-7.604S60.469,496.055,56.268,496.055z"/>
	</g>
</g>
<g>
	<g>
		<path d="M504.396,191.075c-4.2,0-7.604,3.405-7.604,7.604v282.573c0,8.163-6.645,14.802-14.812,14.802H263.604v-12.166h191.407
			c16.671,0,30.233-13.562,30.233-30.233v-30.304V184.506v-30.304c0-16.671-13.562-30.233-30.233-30.233h-46.844
			c-4.2,0-7.604,3.405-7.604,7.604s3.404,7.604,7.604,7.604h46.844c8.285,0,15.025,6.74,15.025,15.025v30.304v238.845
			c0,8.28-6.74,15.015-15.025,15.015H303.986c-15.675,0-30.11,6.437-40.382,17.316V179.558c0-22.266,18.115-40.382,40.382-40.382
			h20.033c4.2,0,7.604-3.405,7.604-7.604s-3.404-7.604-7.604-7.604h-20.033c-20.441,0-38.329,11.098-47.986,27.577
			c-9.657-16.479-27.545-27.577-47.986-27.577h-32.233c-4.2,0-7.604,3.405-7.604,7.604s3.404,7.604,7.604,7.604h32.233
			c22.267,0,40.382,18.116,40.382,40.382v276.123c-10.273-10.878-24.708-17.315-40.382-17.315H56.979
			c-8.285,0-15.025-6.736-15.025-15.015V184.506v-30.304c0-8.285,6.74-15.025,15.025-15.025h53.911c4.2,0,7.604-3.405,7.604-7.604
			c0-4.199-3.404-7.604-7.604-7.604H56.979c-16.671,0-30.233,13.562-30.233,30.233v30.304v238.845v30.304
			c0,16.671,13.562,30.233,30.233,30.233h191.417v12.166H81.616c-4.2,0-7.604,3.405-7.604,7.604s3.404,7.604,7.604,7.604h400.365
			c16.553,0,30.019-13.462,30.019-30.01V198.679C512,194.48,508.596,191.075,504.396,191.075z M303.986,453.574h151.025
			c5.468,0,10.596-1.466,15.025-4.013v4.094c0,8.285-6.74,15.025-15.025,15.025H272.453
			C279.973,459.256,291.432,453.574,303.986,453.574z M56.979,468.681c-8.285,0-15.025-6.74-15.025-15.025v-4.094
			c4.43,2.548,9.559,4.013,15.025,4.013h151.035c12.554,0,24.013,5.682,31.534,15.107H56.979z"/>
	</g>
</g>
<g>
	<g>
		<path d="M204.248,193.706H81.221c-4.2,0-7.604,3.405-7.604,7.604s3.404,7.604,7.604,7.604h123.027c4.2,0,7.604-3.405,7.604-7.604
			S208.449,193.706,204.248,193.706z"/>
	</g>
</g>
<g>
	<g>
		<path d="M204.248,230.923H81.221c-4.2,0-7.604,3.405-7.604,7.604c0,4.199,3.404,7.604,7.604,7.604h123.027
			c4.2,0,7.604-3.405,7.604-7.604C211.852,234.328,208.449,230.923,204.248,230.923z"/>
	</g>
</g>
<g>
	<g>
		<path d="M204.248,305.357h-27.326c-4.2,0-7.604,3.405-7.604,7.604c0,4.199,3.404,7.604,7.604,7.604h27.326
			c4.2,0,7.604-3.405,7.604-7.604C211.852,308.761,208.449,305.357,204.248,305.357z"/>
	</g>
</g>
<g>
	<g>
		<path d="M151.574,305.357H81.221c-4.2,0-7.604,3.405-7.604,7.604c0,4.199,3.405,7.604,7.604,7.604h70.353
			c4.2,0,7.604-3.405,7.604-7.604C159.178,308.761,155.775,305.357,151.574,305.357z"/>
	</g>
</g>
<g>
	<g>
		<path d="M204.248,379.79H81.221c-4.2,0-7.604,3.405-7.604,7.604s3.404,7.604,7.604,7.604h123.027c4.2,0,7.604-3.405,7.604-7.604
			S208.449,379.79,204.248,379.79z"/>
	</g>
</g>
<g>
	<g>
		<path d="M204.248,268.14H81.221c-4.2,0-7.604,3.405-7.604,7.604s3.404,7.604,7.604,7.604h123.027c4.2,0,7.604-3.405,7.604-7.604
			S208.449,268.14,204.248,268.14z"/>
	</g>
</g>
<g>
	<g>
		<path d="M204.248,342.574H81.221c-4.2,0-7.604,3.405-7.604,7.604s3.404,7.604,7.604,7.604h123.027c4.2,0,7.604-3.405,7.604-7.604
			S208.449,342.574,204.248,342.574z"/>
	</g>
</g>
<g>
	<g>
		<path d="M331.622,230.923h-18.017c-4.2,0-7.604,3.405-7.604,7.604c0,4.199,3.405,7.604,7.604,7.604h18.017
			c4.2,0,7.604-3.405,7.604-7.604C339.226,234.328,335.822,230.923,331.622,230.923z"/>
	</g>
</g>
<g>
	<g>
		<path d="M436.632,230.923h-34.548c-4.2,0-7.604,3.405-7.604,7.604c0,4.199,3.404,7.604,7.604,7.604h34.548
			c4.2,0,7.604-3.405,7.604-7.604C444.236,234.328,440.832,230.923,436.632,230.923z"/>
	</g>
</g>
<g>
	<g>
		<path d="M436.632,305.357H313.605c-4.2,0-7.604,3.405-7.604,7.604c0,4.199,3.404,7.604,7.604,7.604h123.027
			c4.2,0,7.604-3.405,7.604-7.604C444.236,308.761,440.832,305.357,436.632,305.357z"/>
	</g>
</g>
<g>
	<g>
		<path d="M436.632,379.79H313.605c-4.2,0-7.604,3.405-7.604,7.604s3.405,7.604,7.604,7.604h123.027c4.2,0,7.604-3.405,7.604-7.604
			S440.832,379.79,436.632,379.79z"/>
	</g>
</g>
<g>
	<g>
		<path d="M436.632,268.14H313.605c-4.2,0-7.604,3.405-7.604,7.604s3.404,7.604,7.604,7.604h123.027c4.2,0,7.604-3.405,7.604-7.604
			S440.832,268.14,436.632,268.14z"/>
	</g>
</g>
<g>
	<g>
		<path d="M331.481,342.574h-17.876c-4.2,0-7.604,3.405-7.604,7.604s3.405,7.604,7.604,7.604h17.876c4.2,0,7.604-3.405,7.604-7.604
			S335.681,342.574,331.481,342.574z"/>
	</g>
</g>
<g>
	<g>
		<path d="M436.632,342.574h-79.803c-4.2,0-7.604,3.405-7.604,7.604s3.404,7.604,7.604,7.604h79.803c4.2,0,7.604-3.405,7.604-7.604
			S440.832,342.574,436.632,342.574z"/>
	</g>
</g>
<g>
	<g>
		<path d="M206.171,63.507l-17.348-3.517c-14.134-2.865-25.118-13.85-27.985-27.984l-3.517-17.349
			c-1.461-7.205-7.617-12.236-14.968-12.235c-7.352,0-13.505,5.032-14.966,12.236l-3.517,17.349
			c-2.865,14.133-13.849,25.118-27.985,27.984l-17.349,3.517c-7.205,1.461-12.235,7.616-12.235,14.967
			c0,7.35,5.031,13.504,12.235,14.964l17.349,3.517c14.133,2.865,25.118,13.85,27.985,27.984l3.517,17.35
			c1.46,7.203,7.614,12.235,14.966,12.236c0,0,0,0,0.001,0c7.351,0,13.505-5.032,14.967-12.236l3.517-17.349
			c2.865-14.133,13.85-25.118,27.985-27.984l17.348-3.517c7.203-1.46,12.236-7.614,12.236-14.966S213.375,64.968,206.171,63.507z
			 M203.196,78.524c-0.015,0.003-0.03,0.007-0.049,0.01l-17.348,3.517c-20.135,4.083-35.785,19.731-39.867,39.867l-3.517,17.348
			c-0.003,0.017-0.007,0.033-0.011,0.048c-0.033,0.002-0.07,0.002-0.102,0c-0.003-0.014-0.007-0.03-0.01-0.047l-3.517-17.35
			c-4.082-20.135-19.732-35.784-39.867-39.867l-17.349-3.516c-0.017-0.003-0.032-0.007-0.048-0.01c-0.001-0.033-0.001-0.068,0-0.101
			c0.015-0.003,0.03-0.007,0.048-0.01l17.349-3.517c20.135-4.083,35.785-19.731,39.867-39.867l3.517-17.349
			c0.003-0.018,0.007-0.033,0.011-0.048c0.03-0.002,0.068-0.002,0.101,0c0.004,0.014,0.008,0.03,0.011,0.048l3.517,17.349
			c4.082,20.135,19.732,35.784,39.867,39.867l17.348,3.517c0.018,0.003,0.033,0.007,0.049,0.01
			C203.198,78.456,203.198,78.49,203.196,78.524z"/>
	</g>
</g>
<g>
	<g>
		<path d="M441.451,160.158l-20.495-4.155c-17.24-3.496-30.639-16.894-34.134-34.134l-4.156-20.494
			c-1.593-7.859-8.308-13.35-16.327-13.35s-14.734,5.49-16.327,13.35l-4.156,20.494c-3.495,17.24-16.894,30.638-34.134,34.134
			l-20.495,4.155c-7.86,1.594-13.35,8.309-13.35,16.328s5.489,14.734,13.35,16.328l20.495,4.155
			c17.24,3.495,30.638,16.894,34.134,34.134l4.156,20.494c1.593,7.859,8.308,13.35,16.327,13.35s14.734-5.49,16.327-13.35
			l4.156-20.494c3.496-17.24,16.894-30.639,34.134-34.134l20.495-4.155c7.86-1.594,13.349-8.309,13.349-16.328
			S449.312,161.751,441.451,160.158z M438.43,177.909l-20.495,4.155c-23.242,4.711-41.304,22.774-46.017,46.017l-4.156,20.494
			c-0.082,0.407-0.235,1.164-1.422,1.164s-1.34-0.757-1.422-1.164l-4.156-20.494c-4.712-23.242-22.775-41.305-46.017-46.017
			l-20.495-4.155c-0.406-0.082-1.163-0.235-1.163-1.423c0-1.188,0.757-1.341,1.163-1.423l20.495-4.155
			c23.242-4.712,41.305-22.775,46.017-46.017l4.156-20.494c0.082-0.407,0.235-1.163,1.422-1.163s1.34,0.757,1.422,1.163
			l4.156,20.494c4.712,23.242,22.775,41.305,46.017,46.017l20.495,4.155c0.406,0.082,1.163,0.235,1.163,1.423
			C439.593,177.674,438.836,177.827,438.43,177.909z"/>
	</g>
</g>
<g>
</g>
<g>
</g>
<g>
</g>
<g>
</g>
<g>
</g>
<g>
</g>
<g>
</g>
<g>
</g>
<g>
</g>
<g>
</g>
<g>
</g>
<g>
</g>
<g>
</g>
<g>
</g>
<g>
</g>
</svg>
