<svg id="Layer_1" enable-background="new 0 0 511.426 511.426" height="512" viewBox="0 0 511.426 511.426" width="512" xmlns="http://www.w3.org/2000/svg"><path fill="#FFFFFF" d="m448.513 296.659h-17.133v-49.267c0-5.199-2.692-10.027-7.114-12.76-4.423-2.733-9.945-2.98-14.594-.657l-41.492 20.746-45.527-22.764c39.172-29.461 44.46-70.539 44.46-88.999v-32.15c-6.128-147.785-216.719-147.705-222.8 0v32.15c0 18.472 5.295 59.544 44.46 88.999l-45.527 22.764-41.492-20.746c-4.65-2.325-10.172-2.077-14.594.657-4.422 2.733-7.114 7.561-7.114 12.76v49.267h-17.133c-8.284 0-15 6.716-15 15v80.333c0 8.284 6.716 15 15 15h17.133v25.167c0 5.682 3.21 10.875 8.292 13.417l128.533 64.267c2.083 1.042 4.379 1.583 6.708 1.583h64.267c2.329 0 4.625-.542 6.708-1.583l128.533-64.267c5.082-2.541 8.292-7.735 8.292-13.417v-25.167h17.133c8.284 0 15-6.716 15-15v-80.333c.001-8.284-6.715-15-14.999-15zm-177.8-265.851c37.745 7.052 66.4 40.242 66.4 80.001v15.779c-52.913-9.8-66.4-58.104-66.4-80.029zm-96.4 80.001c0-39.759 28.655-72.949 66.4-80.001v15.751c0 38.827-27.716 72.865-66.4 80.029zm1.177 45.992c46.708-6.753 71.25-38.911 80.223-54.317 8.923 15.321 33.488 47.559 80.223 54.317-17.287 89.619-143.194 89.555-160.446 0zm-97.577 220.192v-50.333h17.133c33.395 1.386 33.369 48.96 0 50.333zm130.667 95.162-98.533-49.267v-17.968c23.154-6.55 40.167-27.875 40.167-53.111 0-34.571-27.485-49.545-40.167-53.102v-27.044l98.533 49.267zm64.266 9.271h-34.266v-154.767h34.267v154.767zm11.459-184.767h-57.185l-50.333-25.167 44.906-22.453c21.258 7.048 46.782 7.048 68.041 0l44.906 22.453zm117.074 126.23-98.533 49.267v-151.226l98.533-49.267v27.044c-12.633 3.544-40.167 18.569-40.167 53.118 0 25.223 17.013 46.545 40.167 53.095zm32.134-45.896h-17.133c-33.395-1.386-33.369-48.96 0-50.333h17.133z"/></svg>